<?xml version="1.0" standalone="no"?>
<!DOCTYPE svg PUBLIC "-//W3C//DTD SVG 20010904//EN"
 "http://www.w3.org/TR/2001/REC-SVG-20010904/DTD/svg10.dtd">
<svg version="1.0" xmlns="http://www.w3.org/2000/svg"
 width="1562.000000pt" height="1562.000000pt" viewBox="0 0 1562.000000 1562.000000"
 preserveAspectRatio="xMidYMid meet">

<g transform="translate(0.000000,1562.000000) scale(0.100000,-0.100000)"
fill="#000000" stroke="none">
<path d="M7724 12316 c-17 -7 -50 -26 -75 -42 -24 -15 -62 -38 -85 -50 -22
-12 -61 -35 -85 -50 -24 -16 -53 -33 -64 -39 -35 -19 -260 -152 -530 -312
-143 -85 -314 -187 -380 -226 -66 -39 -236 -141 -378 -226 -142 -86 -268 -162
-280 -168 -12 -7 -21 -18 -19 -24 1 -6 -2 -7 -8 -4 -6 4 -50 -18 -98 -47 -48
-30 -104 -65 -125 -77 -20 -13 -35 -27 -32 -32 4 -5 -1 -6 -9 -3 -9 3 -16 1
-16 -5 0 -6 -3 -10 -7 -9 -16 4 -53 -23 -47 -34 4 -7 3 -8 -4 -4 -6 4 -53 -19
-104 -50 -51 -31 -119 -73 -151 -92 l-58 -35 38 -23 c21 -13 49 -29 63 -36 14
-7 27 -15 30 -18 10 -10 87 -59 160 -101 41 -23 83 -49 92 -57 9 -8 23 -11 30
-6 7 4 10 4 6 -1 -14 -15 221 -145 261 -145 28 0 107 46 103 60 -1 6 2 9 8 5
5 -3 39 11 75 33 53 32 62 41 52 52 -10 12 -9 12 5 1 14 -10 23 -8 55 12 30
20 241 145 313 187 8 5 40 23 70 41 30 18 98 57 150 87 52 30 97 59 98 63 2 5
9 9 16 9 7 0 32 14 54 30 23 17 45 30 49 30 3 0 38 20 77 44 39 24 90 53 114
65 26 13 40 26 36 33 -4 6 -3 8 4 4 6 -3 38 11 72 31 34 21 83 50 108 64 26
15 46 32 44 39 -1 6 2 9 8 5 15 -9 122 54 114 67 -4 6 -2 8 4 4 6 -3 66 25
134 64 68 39 134 74 147 77 24 6 56 -7 132 -54 20 -12 40 -19 43 -16 3 4 6 1
6 -5 0 -10 28 -27 145 -92 22 -12 218 -125 435 -250 217 -125 411 -237 430
-248 131 -74 315 -180 372 -214 38 -23 72 -37 79 -32 8 4 9 3 5 -5 -5 -7 5
-17 26 -27 32 -15 59 -31 152 -87 26 -15 51 -25 56 -22 6 4 9 1 8 -7 -2 -7 5
-12 14 -12 10 1 15 -2 12 -7 -6 -10 60 -39 90 -39 11 0 64 20 116 45 211 100
393 98 601 -5 34 -16 64 -30 67 -30 6 0 -5 191 -14 237 -4 19 -11 30 -17 26
-6 -3 -7 -1 -3 5 10 16 -32 94 -46 86 -6 -4 -8 -3 -5 3 7 12 -68 85 -77 76 -3
-4 -6 -2 -6 4 0 14 -295 189 -640 381 -25 14 -62 36 -83 49 -21 13 -43 21 -49
17 -6 -4 -8 -3 -5 2 5 9 -110 80 -253 157 -30 16 -63 36 -72 44 -9 8 -22 12
-30 7 -7 -4 -10 -4 -6 1 8 9 -8 20 -117 80 -38 21 -86 48 -105 60 -19 12 -105
61 -190 110 -85 49 -239 137 -343 197 -103 60 -192 106 -199 102 -6 -4 -8 -3
-5 3 4 6 -72 54 -176 113 -100 57 -204 116 -232 133 -58 35 -108 43 -151 23z"/>
<path d="M7695 11372 c-122 -66 -214 -126 -208 -135 3 -6 1 -7 -5 -3 -7 4 -52
-18 -102 -48 -49 -31 -93 -56 -96 -56 -4 0 -21 -10 -38 -23 -17 -12 -43 -29
-58 -36 -15 -8 -25 -19 -21 -24 3 -6 1 -7 -5 -3 -6 3 -46 -15 -89 -40 -43 -26
-98 -58 -123 -72 -90 -49 -110 -64 -104 -74 4 -7 2 -8 -4 -4 -14 8 -145 -67
-135 -78 4 -4 0 -4 -8 -1 -9 3 -22 -1 -29 -10 -7 -8 -17 -15 -22 -15 -5 0 -32
-15 -61 -33 -43 -27 -175 -106 -258 -153 -118 -67 -419 -250 -419 -254 1 -13
141 -91 151 -84 7 4 9 3 6 -4 -4 -6 79 -61 203 -136 116 -69 213 -126 216
-126 3 0 25 -14 50 -31 25 -17 50 -27 57 -23 6 4 9 4 5 -1 -5 -5 6 -17 22 -27
34 -20 116 -26 104 -6 -4 6 -3 8 4 4 6 -3 40 12 77 34 36 22 67 40 69 40 17 0
124 74 119 83 -3 6 -1 7 5 3 14 -9 318 169 314 184 -1 6 2 9 8 5 5 -3 39 11
75 33 53 32 62 41 52 52 -10 12 -9 12 4 2 14 -10 34 -2 120 49 173 103 211
114 271 80 18 -10 92 -52 163 -93 72 -41 186 -108 255 -147 69 -39 132 -76
140 -81 14 -9 38 -23 265 -155 159 -92 166 -96 177 -89 6 4 8 3 5 -3 -6 -10
49 -43 72 -43 22 0 80 34 74 43 -3 6 -1 7 4 4 6 -4 59 21 119 54 248 139 464
259 541 300 46 24 83 47 83 50 0 12 -123 79 -133 72 -5 -3 -7 -1 -4 4 4 6 0
14 -9 17 -9 3 -77 42 -151 86 -116 69 -137 79 -152 68 -14 -11 -14 -11 -4 2
10 13 -1 23 -72 64 -46 26 -85 46 -87 44 -2 -1 -14 7 -28 20 -13 12 -28 22
-32 22 -5 0 -26 11 -49 25 -22 14 -45 23 -51 19 -7 -4 -8 -3 -4 4 4 7 -10 20
-36 33 -24 12 -80 43 -124 70 -45 27 -84 49 -87 49 -3 0 -26 14 -51 31 -26 17
-51 27 -58 23 -7 -4 -10 -4 -6 1 8 9 -9 21 -104 72 -31 17 -112 64 -180 103
-67 40 -152 89 -188 110 -36 21 -117 68 -180 105 -140 82 -178 89 -255 47z
m940 -1372 c3 -6 -1 -7 -9 -4 -18 7 -21 14 -7 14 6 0 13 -4 16 -10z"/>
<path d="M7722 10227 c-24 -13 -39 -27 -35 -32 4 -4 2 -5 -5 0 -9 4 -25 -1
-43 -14 -15 -11 -30 -21 -33 -21 -7 0 -538 -318 -549 -329 -5 -5 13 -21 40
-36 26 -15 89 -52 140 -82 53 -31 97 -51 104 -47 7 4 9 3 6 -3 -9 -14 380
-246 395 -237 6 4 8 3 5 -3 -3 -5 14 -20 39 -32 l45 -23 50 21 c103 42 641
360 632 374 -3 6 -1 7 5 3 7 -4 25 1 42 10 l29 18 -67 43 c-37 23 -73 40 -80
38 -7 -3 -11 -1 -8 3 4 7 -66 52 -204 132 -8 5 -41 25 -73 45 -32 19 -63 32
-69 29 -7 -4 -8 -2 -4 4 4 7 -10 20 -36 33 -24 12 -84 46 -135 75 -102 60
-127 64 -191 31z"/>
<path d="M7849 5521 c-85 -12 -122 -54 -94 -107 9 -19 15 -57 15 -106 0 -70 2
-79 23 -90 16 -9 96 -14 280 -18 l259 -5 -261 -360 c-143 -198 -261 -363 -261
-366 0 -4 28 -10 62 -13 87 -10 115 -27 129 -79 14 -53 4 -144 -20 -177 -10
-14 -33 -30 -52 -37 -27 -10 49 -12 393 -12 248 -1 437 3 452 9 39 14 58 54
64 128 5 79 -12 131 -54 159 -25 16 -59 19 -299 23 l-271 5 198 275 c425 587
398 547 398 601 0 26 -4 58 -9 71 -16 43 -71 86 -123 97 -53 12 -749 13 -829
2z"/>
<path d="M9355 5150 c-106 -21 -196 -73 -281 -162 -94 -98 -134 -198 -134
-338 0 -135 41 -244 127 -340 99 -110 233 -171 378 -171 149 -1 267 45 364
141 106 104 152 217 152 369 0 151 -39 250 -141 351 -128 128 -299 183 -465
150z m204 -353 c52 -35 74 -78 74 -147 0 -93 -50 -156 -143 -181 -78 -20 -168
20 -205 92 -19 35 -19 120 -1 162 17 39 61 81 101 96 50 18 129 8 174 -22z"/>
<path d="M10463 5146 c-91 -21 -179 -72 -254 -146 -77 -77 -113 -145 -136
-256 -68 -336 222 -646 567 -603 306 37 506 326 435 627 -39 164 -162 299
-330 361 -76 29 -199 36 -282 17z m192 -335 c71 -33 105 -86 105 -164 -1 -95
-67 -167 -167 -183 -35 -5 -53 -2 -99 21 -84 41 -120 120 -95 212 15 54 42 86
93 112 53 26 110 27 163 2z"/>
<path d="M11307 5130 c-50 -9 -77 -38 -88 -91 -5 -24 -7 -215 -6 -424 3 -403
3 -409 51 -440 32 -21 141 -30 194 -16 74 20 76 29 82 316 4 223 7 253 24 282
32 53 89 67 147 37 53 -27 59 -59 60 -306 0 -243 6 -278 52 -312 38 -28 175
-30 223 -4 48 26 54 57 54 295 0 291 12 331 102 340 58 6 103 -22 117 -74 6
-21 11 -134 11 -256 0 -239 6 -271 56 -304 40 -26 178 -26 218 0 55 36 59 64
53 357 -7 352 -24 419 -132 519 -65 60 -124 84 -210 85 -59 1 -79 -4 -129 -29
-33 -16 -80 -51 -106 -77 l-46 -47 -42 49 c-61 71 -135 104 -232 105 -88 0
-114 -12 -182 -81 l-48 -48 0 30 c0 79 -95 119 -223 94z"/>
</g>
</svg>
